<svg width="392" height="392" viewBox="0 0 392 392" fill="none" xmlns="http://www.w3.org/2000/svg">
<g opacity="0.2">
<path d="M178.102 226.33C178.376 226.408 178.662 226.512 178.988 226.59L180.016 226.772C180.746 226.902 181.54 227.072 182.425 227.202L185.303 227.41C185.836 227.443 186.371 227.443 186.904 227.41H188.61C189.203 227.377 189.794 227.311 190.38 227.215L192.242 226.968C192.88 226.863 193.544 226.681 194.156 226.538L195.146 226.304C195.483 226.243 195.814 226.151 196.135 226.03C197.502 225.606 198.842 225.097 200.145 224.507C202.963 223.244 205.592 221.596 207.958 219.611L209.78 217.984C210.392 217.437 210.913 216.786 211.499 216.187C211.785 215.887 212.059 215.575 212.345 215.262C212.632 214.95 212.853 214.598 213.113 214.26C213.608 213.583 214.155 212.958 214.611 212.216L215.913 210.015L216.238 209.455L216.512 208.87L217.085 207.672L217.644 206.487C217.84 206.083 217.931 205.693 218.087 205.302L218.947 202.88C219.856 199.554 220.32 196.121 220.327 192.673C220.327 191.826 220.235 190.98 220.183 190.134C220.183 189.717 220.183 189.3 220.079 188.832C219.975 188.363 219.936 187.998 219.858 187.595C219.702 186.775 219.611 185.941 219.389 185.147C219.168 184.353 218.946 183.572 218.738 182.79C217.809 179.827 216.468 177.009 214.754 174.418C213.965 173.211 213.095 172.058 212.15 170.968C211.945 170.695 211.718 170.438 211.473 170.2L210.77 169.471C210.301 169.002 209.858 168.507 209.39 168.078L207.958 166.854C207.518 166.451 207.052 166.077 206.564 165.734L205.158 164.771C204.741 164.46 204.306 164.173 203.856 163.911C202.958 163.416 202.112 162.948 201.252 162.531C200.393 162.114 199.677 161.867 198.987 161.581L198.023 161.177L197.151 160.917L195.758 160.513L194.599 160.174L195.719 160.643L197.021 161.19L197.867 161.542L198.778 162.023C199.429 162.362 200.145 162.726 200.901 163.143L203.257 164.692C203.715 164.971 204.15 165.284 204.559 165.63L205.861 166.658C206.317 167.019 206.752 167.406 207.163 167.817L208.465 169.119C208.895 169.562 209.273 170.057 209.702 170.538L210.327 171.268C210.549 171.509 210.754 171.765 210.939 172.036C213.525 175.468 215.466 179.342 216.668 183.467C217.507 186.469 217.944 189.569 217.97 192.686C217.936 195.9 217.477 199.096 216.603 202.19L215.796 204.495C215.676 204.894 215.532 205.285 215.366 205.667L214.871 206.734L214.376 207.802L214.129 208.349L213.83 208.857L212.606 210.914C210.899 213.524 208.854 215.897 206.525 217.971L206.109 218.361L205.666 218.7L204.768 219.39C204.202 219.862 203.606 220.297 202.984 220.692L201.148 221.864C200.536 222.228 199.846 222.528 199.273 222.853C198.058 223.472 196.805 224.015 195.523 224.481C195.224 224.61 194.915 224.715 194.599 224.793L193.674 225.08C193.063 225.249 192.464 225.457 191.865 225.6L190.094 225.939C189.537 226.071 188.971 226.167 188.401 226.225L186.761 226.395C186.227 226.395 185.719 226.538 185.211 226.525H182.386C181.527 226.525 180.72 226.382 179.99 226.317L178.962 226.225C178.649 226.225 178.35 226.121 178.076 226.069L176.657 225.822L175.472 225.6L176.618 225.939L178.102 226.33Z" fill="white"/>
<path d="M218.96 222.566L217.723 223.581L216.642 224.493L215.64 225.17C214.429 225.977 213.752 226.472 213.752 226.472C213.752 226.472 214.481 226.094 215.77 225.378L216.824 224.779L217.996 223.959C218.426 223.673 218.869 223.36 219.298 223.022C219.545 222.862 219.777 222.679 219.988 222.475L220.691 221.863L222.163 220.561L223.595 219.011L224.337 218.191C224.584 217.905 224.793 217.592 225.027 217.293L226.42 215.418C227.31 214.047 228.102 212.616 228.79 211.134C229.504 209.6 230.117 208.021 230.626 206.408C231.066 204.777 231.406 203.12 231.641 201.447C231.852 199.828 231.96 198.197 231.967 196.565C231.967 195.771 231.863 195.002 231.811 194.234C231.811 193.857 231.811 193.479 231.719 193.101C231.628 192.724 231.589 192.372 231.537 192.021C231.407 191.305 231.29 190.602 231.173 189.938C231.055 189.274 230.808 188.636 230.639 188.037C230.548 187.724 230.469 187.425 230.378 187.138C230.309 186.854 230.217 186.575 230.105 186.305L229.48 184.782L228.933 183.48L228.373 182.412C227.683 181.11 227.267 180.394 227.267 180.394C227.267 180.394 227.579 181.175 228.152 182.516C228.295 182.855 228.464 183.219 228.634 183.623L229.063 184.925L229.545 186.448C229.727 186.982 229.805 187.581 229.962 188.18C230.118 188.779 230.235 189.417 230.378 190.068C230.522 190.719 230.548 191.37 230.626 192.112C230.626 192.463 230.717 192.815 230.769 193.18C230.821 193.544 230.769 193.909 230.769 194.273C230.769 195.011 230.795 195.766 230.847 196.539C230.796 198.121 230.657 199.699 230.43 201.265C229.997 204.503 229.071 207.656 227.683 210.613C227.026 212.049 226.291 213.449 225.483 214.806L224.181 216.668C223.972 216.967 223.777 217.28 223.556 217.566L222.866 218.386L221.564 219.975L220.262 221.277C219.806 221.759 219.402 222.214 218.96 222.566Z" fill="white"/>
<path d="M358.978 186.852C357.53 186.865 356.107 187.222 354.824 187.894L342.13 175.186C338.748 151.342 329.565 128.693 315.386 109.227L320.113 100.113C321.889 100.239 323.664 99.8419 325.217 98.9706C326.771 98.0994 328.035 96.7921 328.853 95.2104C329.672 93.6286 330.009 91.8417 329.823 90.0703C329.638 88.299 328.937 86.621 327.808 85.2436C327.45 84.8011 327.054 84.3915 326.623 84.0197C325.705 83.2425 324.642 82.6547 323.496 82.2901C322.35 81.9255 321.143 81.7914 319.945 81.8955C318.746 81.9996 317.581 82.3398 316.515 82.8966C315.448 83.4533 314.503 84.2156 313.733 85.1394L313.668 85.2436H293.526C271.895 66.0787 245.11 53.6914 216.499 49.6206L203.791 36.926C204.471 35.6466 204.828 34.2211 204.833 32.7726C204.821 31.4008 204.501 30.0493 203.894 28.8188C203.288 27.5883 202.411 26.5106 201.33 25.666C200.249 24.8215 198.991 24.2318 197.651 23.9411C196.31 23.6503 194.921 23.666 193.587 23.9868C192.253 24.3077 191.009 24.9255 189.948 25.7942C188.886 26.6629 188.034 27.7601 187.455 29.0039C186.877 30.2478 186.586 31.6062 186.606 32.9778C186.625 34.3495 186.954 35.6991 187.568 36.926L174.861 49.6206C146.259 53.6702 119.479 66.035 97.8466 85.1785H77.7176C77.3645 84.7361 76.9724 84.3265 76.5458 83.9546C75.6275 83.1754 74.5639 82.5859 73.4165 82.2202C72.2691 81.8545 71.0606 81.7198 69.8608 81.8239C68.661 81.928 67.4938 82.2689 66.4265 82.8268C65.3592 83.3847 64.4131 84.1486 63.6428 85.0743C63.6241 85.1108 63.6023 85.1457 63.5777 85.1785C62.4454 86.5548 61.7414 88.2328 61.5529 90.0051C61.3643 91.7773 61.6996 93.5659 62.517 95.1496C63.3345 96.7333 64.5984 98.0426 66.1522 98.9154C67.7061 99.7883 69.4818 100.186 71.2596 100.06L75.9859 109.175C61.795 128.655 52.607 151.323 49.2296 175.186L36.535 187.894C35.3081 187.28 33.9585 186.951 32.5869 186.932C31.2152 186.912 29.8568 187.203 28.6129 187.781C27.3691 188.36 26.2719 189.212 25.4032 190.274C24.5345 191.335 23.9167 192.579 23.5958 193.913C23.275 195.247 23.2593 196.636 23.5501 197.977C23.8408 199.317 24.4305 200.575 25.275 201.656C26.1196 202.737 27.1973 203.614 28.4278 204.22C29.6583 204.827 31.0098 205.147 32.3816 205.159C33.8301 205.154 35.2556 204.796 36.535 204.117L49.2296 216.825C52.6113 240.669 61.7944 263.318 75.9729 282.785L69.4628 295.284C67.9998 295.486 66.6079 296.041 65.4069 296.9C64.2058 297.76 63.2316 298.898 62.5681 300.218C61.9047 301.537 61.5718 302.998 61.5981 304.475C61.6245 305.951 62.0093 307.4 62.7194 308.695C63.4295 309.989 64.4437 311.092 65.6747 311.909C66.9056 312.725 68.3165 313.229 69.7857 313.379C71.255 313.529 72.7386 313.32 74.109 312.769C75.4794 312.218 76.6954 311.343 77.6525 310.218C78.4803 309.231 79.0844 308.076 79.4232 306.833H97.8336C119.461 326.003 146.247 338.391 174.861 342.456L187.568 355.15C186.954 356.377 186.625 357.727 186.606 359.099C186.586 360.47 186.877 361.829 187.455 363.072C188.034 364.316 188.886 365.413 189.948 366.282C191.009 367.151 192.253 367.769 193.587 368.09C194.921 368.41 196.31 368.426 197.651 368.135C198.991 367.845 200.249 367.255 201.33 366.41C202.411 365.566 203.288 364.488 203.894 363.258C204.501 362.027 204.821 360.676 204.833 359.304C204.826 357.856 204.469 356.43 203.791 355.15L216.499 342.456C245.112 338.391 271.898 326.003 293.526 306.833H313.642C313.996 307.278 314.393 307.688 314.827 308.057C315.745 308.834 316.807 309.422 317.953 309.786C319.1 310.151 320.307 310.285 321.505 310.181C322.703 310.077 323.869 309.737 324.935 309.18C326.001 308.623 326.946 307.861 327.717 306.937L327.782 306.833C328.911 305.455 329.611 303.777 329.797 302.006C329.983 300.235 329.646 298.448 328.827 296.866C328.009 295.284 326.745 293.977 325.191 293.106C323.638 292.235 321.863 291.838 320.087 291.964L315.36 282.85C329.539 263.383 338.722 240.734 342.104 216.89L354.798 204.182C356.078 204.86 357.504 205.217 358.952 205.224C361.379 205.224 363.707 204.26 365.424 202.543C367.141 200.826 368.105 198.498 368.105 196.071C368.105 193.643 367.141 191.315 365.424 189.598C363.707 187.882 361.379 186.918 358.952 186.918L358.978 186.852ZM48.3312 208.843L40.1936 200.719C41.0701 199.305 41.5344 197.675 41.5344 196.012C41.5344 194.349 41.0701 192.719 40.1936 191.305L48.3312 183.168C47.9666 187.399 47.7453 191.683 47.7453 196.006C47.7453 200.328 47.9666 204.612 48.3312 208.843ZM311.611 90.1782C311.476 91.6432 311.699 93.119 312.259 94.4794C312.819 95.8398 313.7 97.0444 314.827 97.9903C314.996 98.1335 315.191 98.2377 315.373 98.3679L312.04 104.878C307.989 99.719 303.605 94.8304 298.916 90.2433L311.611 90.1782ZM190.927 40.5195C192.341 41.396 193.971 41.8603 195.634 41.8603C197.297 41.8603 198.927 41.396 200.341 40.5195L208.465 48.6571C204.234 48.2925 199.963 48.0712 195.628 48.0712C191.292 48.0712 187.021 48.2925 182.79 48.6571L190.927 40.5195ZM77.6525 96.8575C79.207 94.9953 79.9648 92.5955 79.7617 90.1782H92.4303C87.7466 94.7625 83.3709 99.6514 79.3321 104.813L75.9989 98.3028C76.601 97.8825 77.1554 97.3979 77.6525 96.8575ZM79.4492 301.833C78.9512 300.073 77.935 298.503 76.5327 297.328C75.9684 296.861 75.3472 296.467 74.6839 296.156L79.319 287.211C83.3622 292.369 87.7422 297.254 92.4303 301.833H79.4492ZM200.38 351.492C198.966 350.615 197.336 350.151 195.673 350.151C194.01 350.151 192.38 350.615 190.966 351.492L182.842 343.406C187.073 343.771 191.357 344.005 195.68 344.005C200.002 344.005 204.286 343.771 208.517 343.406L200.38 351.492ZM298.291 131.361L257.122 90.1782H271.782C283.942 98.966 294.51 109.768 303.03 122.117L298.291 131.361ZM306.22 126.921C311.044 134.594 315.054 142.75 318.186 151.256L302.015 135.085L306.22 126.921ZM306.012 199.117C297.728 205.914 288.715 211.77 279.139 216.577L280.219 215.731C283.061 213.478 285.766 211.056 288.318 208.479C289.965 206.825 291.525 205.087 292.992 203.271C293.994 201.969 294.489 201.331 294.489 201.331C294.489 201.331 293.877 201.93 292.692 202.997C291.508 204.065 289.685 205.523 287.341 207.333C284.998 209.143 282.042 211.174 278.566 213.361C276.821 214.442 274.985 215.614 272.941 216.669C270.897 217.723 268.853 218.986 266.561 220.041L263.124 221.72C261.926 222.267 260.689 222.749 259.452 223.283L255.676 224.923L251.692 226.369L247.604 227.84L243.32 229.142L238.945 230.444L234.441 231.498L229.844 232.553C228.295 232.905 226.707 233.074 225.131 233.347L222.527 233.764C220.496 234.024 218.426 234.259 216.33 234.467C223.261 230.74 229.054 225.207 233.095 218.454C237.135 211.701 239.272 203.979 239.279 196.11C239.286 188.24 237.162 180.515 233.133 173.755C229.104 166.995 223.32 161.452 216.395 157.714C222.814 158.351 228.881 159.276 234.623 160.409L238.958 161.411L243.333 162.713L247.617 164.015L251.705 165.5L255.689 166.945L259.478 168.559C260.78 169.093 261.952 169.575 263.15 170.109L266.587 171.801C268.879 172.856 270.962 174.054 272.967 175.173C274.972 176.293 276.873 177.4 278.592 178.481C282.068 180.655 284.998 182.725 287.367 184.509C289.737 186.293 291.521 187.79 292.718 188.845C293.916 189.899 294.515 190.511 294.515 190.511C294.515 190.511 294.021 189.821 293.018 188.571C291.548 186.758 289.988 185.019 288.344 183.363C285.791 180.791 283.087 178.373 280.245 176.124C282.498 177.296 284.646 178.455 286.612 179.587C293.451 183.521 299.949 188.02 306.038 193.037L246.692 196.149L306.012 199.117ZM85.1911 193.011C93.2069 186.416 101.911 180.706 111.153 175.981C108.298 178.238 105.585 180.669 103.029 183.259C101.384 184.911 99.8279 186.65 98.3674 188.467C97.3519 189.769 96.8701 190.407 96.8701 190.407C96.8701 190.407 97.469 189.808 98.6539 188.74C99.8387 187.673 101.662 186.215 104.018 184.405C106.375 182.595 109.317 180.564 112.794 178.376C114.538 177.309 116.361 176.137 118.405 175.069C120.45 174.002 122.507 172.765 124.785 171.71L128.236 170.018C129.42 169.484 130.67 168.989 131.907 168.468L135.683 166.841L139.68 165.395L143.769 163.924L148.052 162.622L152.414 161.32L156.932 160.265L158.416 159.927C163.685 158.937 169.227 158.152 175.043 157.57C168.099 161.294 162.294 166.831 158.245 173.59C154.196 180.35 152.054 188.081 152.047 195.96C152.041 203.84 154.169 211.574 158.207 218.34C162.244 225.107 168.04 230.653 174.978 234.389C172.556 234.142 170.186 233.868 167.856 233.543L166.241 233.295C164.653 233.022 163.064 232.84 161.528 232.501L156.932 231.446L152.414 230.392L148.052 229.09L143.769 227.853L139.68 226.369L135.683 224.923L131.907 223.309C130.605 222.775 129.42 222.293 128.236 221.759L124.785 220.067C122.507 219.012 120.424 217.814 118.405 216.708C116.387 215.601 114.499 214.468 112.794 213.387C109.317 211.213 106.375 209.143 104.018 207.359C101.662 205.575 99.8517 204.091 98.6539 203.036C97.456 201.982 96.8701 201.37 96.8701 201.37C96.8701 201.37 97.3519 202.06 98.3674 203.31C99.8279 205.127 101.384 206.866 103.029 208.518C105.581 211.09 108.286 213.508 111.127 215.757L112.182 216.59C109.578 215.288 107.065 213.908 104.786 212.593C97.903 208.634 91.3693 204.095 85.2562 199.026L142.297 196.032L85.1911 193.011ZM165.707 174.861C165.707 173.256 166.162 171.683 167.02 170.327C167.878 168.97 169.103 167.885 170.554 167.198C172.005 166.51 173.62 166.249 175.214 166.444C176.807 166.639 178.312 167.283 179.554 168.3C180.796 169.317 181.723 170.666 182.229 172.189C182.734 173.713 182.796 175.349 182.408 176.906C182.02 178.464 181.198 179.879 180.037 180.988C178.876 182.096 177.424 182.852 175.85 183.168C175.995 183.645 176.074 184.14 176.084 184.639C176.088 185.561 175.853 186.469 175.403 187.274C174.952 188.078 174.301 188.753 173.513 189.232C172.725 189.711 171.827 189.978 170.905 190.008C169.983 190.038 169.069 189.828 168.252 189.401C167.435 188.973 166.742 188.342 166.241 187.568C165.74 186.793 165.447 185.903 165.392 184.982C165.336 184.062 165.519 183.142 165.924 182.313C166.328 181.484 166.94 180.774 167.699 180.251C166.422 178.745 165.717 176.836 165.707 174.861ZM198.258 220.692C204.422 217.313 209.327 212.028 212.239 205.629C215.151 199.23 215.912 192.061 214.41 185.193C212.908 178.325 209.222 172.128 203.905 167.529C198.588 162.93 191.925 160.176 184.912 159.68C191.461 157.701 198.423 157.53 205.062 159.184C211.7 160.838 217.768 164.256 222.623 169.075C227.479 173.895 230.941 179.937 232.644 186.563C234.348 193.189 234.228 200.152 232.299 206.716C230.369 213.279 226.702 219.199 221.684 223.85C216.666 228.5 210.484 231.707 203.793 233.133C197.102 234.558 190.15 234.148 183.673 231.947C177.195 229.745 171.433 225.834 166.996 220.627C171.775 223.249 177.136 224.629 182.586 224.64C188.037 224.651 193.403 223.294 198.193 220.692H198.258ZM195.745 146.594C180.195 146.544 164.688 148.226 149.51 151.607L181.279 90.1782H210.223L241.979 151.607C226.78 148.221 211.251 146.539 195.68 146.594H195.745ZM143.065 153.183C131.854 156.099 120.953 160.097 110.515 165.122L95.477 136.035L141.321 90.1782H175.577L143.065 153.183ZM143.065 238.829L175.616 301.833H141.321L95.477 255.989L110.515 226.902C120.933 231.918 131.812 235.913 143 238.829H143.065ZM149.576 240.404C180.028 247.084 211.566 247.084 242.018 240.404L210.262 301.833H181.201L149.576 240.404ZM248.528 238.829C259.713 235.913 270.587 231.919 281 226.902L296.052 255.989L250.039 301.833H215.783L248.528 238.829ZM248.528 153.183L215.978 90.1782H250.039L295.895 136.035L280.844 165.122C270.432 160.101 259.557 156.103 248.372 153.183H248.528ZM252.122 85.1785L240.404 73.4604C248.751 76.5403 256.761 80.4668 264.309 85.1785H252.122ZM245.052 85.1785H213.205L203.192 65.8176C212.285 66.3323 221.297 67.8074 230.079 70.2184L245.052 85.1785ZM207.58 85.1785H183.792L193.909 65.6483C194.495 65.6483 195.081 65.6483 195.68 65.6483C196.279 65.6483 196.865 65.6483 197.463 65.6483L207.58 85.1785ZM178.181 85.1785H146.32L161.281 70.2184C170.067 67.8064 179.083 66.3313 188.18 65.8176L178.181 85.1785ZM139.264 85.1785H127.038C134.581 80.4667 142.586 76.5402 150.93 73.4604L139.264 85.1785ZM134.264 90.1782L93.0552 131.361L88.2769 122.064C96.7948 109.714 107.363 98.9117 119.525 90.1261L134.264 90.1782ZM89.3706 135.085L73.1605 151.256C76.2974 142.752 80.3073 134.597 85.126 126.921L89.3706 135.085ZM91.7793 139.759L106.101 167.374C93.268 173.881 81.4838 182.277 71.1424 192.282L70.6607 192.764C68.6426 194.795 67.653 196.006 67.653 196.006C67.653 196.006 68.6426 197.216 70.6607 199.248L71.1424 199.729C81.4631 209.733 93.2251 218.133 106.036 224.65L91.7532 252.266L69.8404 230.405C63.6604 207.888 63.6604 184.123 69.8404 161.607L91.7793 139.759ZM89.3706 256.94L85.152 265.09C80.3282 257.417 76.3181 249.261 73.1866 240.756L89.3706 256.94ZM93.0813 260.65L134.264 301.833H119.577C107.417 293.045 96.849 282.244 88.3289 269.895L93.0813 260.65ZM139.277 306.833L150.995 318.551C142.645 315.476 134.634 311.55 127.09 306.833H139.277ZM146.347 306.833H178.168L188.18 326.207C179.084 325.682 170.068 324.203 161.281 321.793L146.347 306.833ZM183.818 306.833H207.593L197.489 326.363C196.891 326.363 196.305 326.363 195.706 326.363C195.107 326.363 194.521 326.363 193.935 326.363L183.818 306.833ZM203.205 326.207L213.231 306.833H245.065L230.079 321.793C221.292 324.203 212.276 325.682 203.179 326.207H203.205ZM240.456 318.525L252.174 306.807H264.387C256.817 311.528 248.78 315.455 240.404 318.525H240.456ZM271.808 301.833H257.122L298.304 260.65L303.082 269.895C294.55 282.251 283.964 293.053 271.782 301.833H271.808ZM313.707 295.232C312.932 296.148 312.345 297.209 311.981 298.353C311.616 299.497 311.482 300.702 311.585 301.898H298.916C303.598 297.294 307.974 292.388 312.014 287.211L315.347 293.656C314.734 294.107 314.182 294.637 313.707 295.232ZM306.233 265.155L302.015 257.005L318.199 240.821C315.063 249.304 311.053 257.438 306.233 265.09V265.155ZM321.467 230.47L299.606 252.266L285.284 224.637C311.207 211.122 323.667 195.993 323.667 195.993C323.667 195.993 311.207 180.863 285.284 167.348L299.606 139.733L321.467 161.593C327.664 184.108 327.664 207.878 321.467 230.392V230.47ZM334.279 188.727C334.188 187.53 334.083 186.202 333.966 184.73C333.89 183.126 333.699 181.529 333.393 179.952C332.781 176.541 332.091 172.622 331.31 168.234C330.086 163.95 328.888 159.12 327.261 154.055L324.214 146.243C323.68 144.941 323.186 143.509 322.587 142.141C321.988 140.774 321.219 139.446 320.529 138.066C308.937 113.695 290.399 93.2955 267.246 79.4303C244.092 65.5651 217.357 58.8535 190.4 60.1391C163.444 61.4248 137.468 70.6503 115.74 86.656C94.0111 102.662 77.4986 124.733 68.278 150.097C67.4968 152.414 66.4552 154.654 65.8693 157.023C65.2834 159.393 64.5673 161.763 64.0204 164.106C62.5491 168.807 62.1195 173.546 61.2862 178.233L60.7263 181.762C60.6222 182.973 60.5831 184.209 60.505 185.433C60.3618 187.881 60.2185 190.329 60.0883 192.764L59.9842 194.586V195.498V195.954C59.9819 195.993 59.9819 196.032 59.9842 196.071V196.279L60.1404 199.834C60.2446 202.19 60.3487 204.547 60.4529 206.877C62.2722 230.979 70.3667 254.185 83.9321 274.189C97.4974 294.193 116.061 310.3 137.779 320.908L141.855 322.978C143.222 323.564 144.602 324.071 145.943 324.605L153.755 327.639C158.859 329.266 163.65 330.464 167.934 331.701L179.652 333.771C181.229 334.078 182.826 334.269 184.43 334.344L188.441 334.657L195.784 335.23L188.427 335.06L184.404 334.969C182.793 334.987 181.182 334.882 179.587 334.657L167.491 333.068C163.116 332.001 158.221 330.998 152.974 329.553L144.94 326.793C143.547 326.298 142.115 325.855 140.696 325.308L136.464 323.381C123.452 317.766 111.445 310.06 100.919 300.57C88.2713 289.413 77.7158 276.089 69.7493 261.223C60.7955 244.547 55.3623 226.209 53.7866 207.346C53.6434 204.898 53.5002 202.438 53.37 199.964L53.1616 196.279V195.198V194.287L53.3049 192.373L53.6174 185.043C53.6825 183.819 53.7085 182.595 53.8127 181.358L54.3465 177.556C55.1407 172.504 55.6485 167.296 57.0677 162.388C57.6926 159.914 58.3697 157.414 58.9686 154.927C59.5675 152.44 60.6482 150.045 61.4685 147.597C68.4351 127.778 79.7661 109.778 94.6243 94.9262C109.482 80.0749 127.488 68.752 147.31 61.7944C166.401 54.9839 186.734 52.3596 206.929 54.0995C225.827 55.6623 244.202 61.0958 260.91 70.0621C275.785 78.0323 289.122 88.587 300.296 101.232C309.796 111.775 317.502 123.805 323.107 136.842C323.758 138.274 324.409 139.681 325.034 141.074C325.659 142.467 326.037 143.925 326.532 145.305C327.478 148.092 328.394 150.774 329.279 153.352C330.724 158.56 331.74 163.494 332.794 167.869C333.367 172.335 333.888 176.319 334.331 179.796C334.557 181.391 334.661 183.002 334.643 184.613C334.643 186.097 334.708 187.438 334.734 188.649C334.839 193.441 334.904 196.006 334.904 196.006C334.904 196.006 334.656 193.454 334.279 188.662V188.727ZM351.205 200.784L343.067 208.909C343.432 204.677 343.666 200.406 343.666 196.071C343.666 191.735 343.432 187.464 343.067 183.233L351.205 191.37C350.328 192.784 349.864 194.414 349.864 196.077C349.864 197.74 350.328 199.371 351.205 200.784Z" fill="white"/>
<path d="M376.45 191.435C375.543 191.433 374.655 191.699 373.899 192.202C373.143 192.705 372.554 193.42 372.205 194.258C371.857 195.096 371.765 196.019 371.942 196.909C372.118 197.799 372.555 198.617 373.197 199.259C373.838 199.901 374.656 200.337 375.546 200.514C376.437 200.69 377.359 200.598 378.197 200.25C379.035 199.901 379.751 199.312 380.253 198.556C380.756 197.801 381.023 196.913 381.02 196.005C381.02 194.793 380.539 193.631 379.682 192.774C378.825 191.917 377.662 191.435 376.45 191.435Z" fill="white"/>
<path d="M14.921 191.435C14.0135 191.433 13.1256 191.699 12.3699 192.202C11.6142 192.705 11.0248 193.42 10.6763 194.258C10.3278 195.096 10.236 196.019 10.4124 196.909C10.5888 197.799 11.0256 198.617 11.6673 199.259C12.309 199.901 13.1269 200.337 14.0171 200.514C14.9073 200.69 15.8299 200.598 16.6679 200.25C17.5059 199.901 18.2215 199.312 18.7241 198.556C19.2267 197.801 19.4937 196.913 19.4911 196.005C19.4876 194.794 19.0051 193.634 18.1488 192.777C17.2924 191.921 16.132 191.439 14.921 191.435Z" fill="white"/>
<path d="M186.774 274.947C188.872 276.708 191.445 277.807 194.168 278.107C196.89 278.406 199.641 277.891 202.071 276.628C204.502 275.364 206.503 273.408 207.822 271.008C209.141 268.607 209.719 265.869 209.483 263.14C209.246 260.411 208.206 257.813 206.493 255.676C204.781 253.538 202.473 251.955 199.861 251.129C197.25 250.302 194.452 250.268 191.821 251.031C189.19 251.795 186.845 253.321 185.081 255.416C183.904 256.807 183.014 258.417 182.461 260.154C181.909 261.89 181.706 263.718 181.863 265.534C182.02 267.349 182.535 269.115 183.378 270.731C184.221 272.346 185.375 273.779 186.774 274.947ZM188.909 258.658C190.034 257.321 191.531 256.346 193.21 255.859C194.889 255.371 196.675 255.392 198.341 255.92C200.008 256.447 201.481 257.457 202.574 258.821C203.668 260.185 204.332 261.843 204.483 263.585C204.634 265.326 204.265 267.074 203.423 268.606C202.581 270.138 201.304 271.386 199.753 272.193C198.202 272.999 196.446 273.327 194.708 273.136C192.971 272.945 191.329 272.243 189.99 271.119C189.1 270.372 188.367 269.457 187.831 268.426C187.295 267.396 186.968 266.27 186.868 265.113C186.767 263.955 186.896 262.79 187.246 261.682C187.596 260.575 188.161 259.547 188.909 258.658Z" fill="white"/>
<path d="M190.381 285.753C189.499 286.802 188.947 288.088 188.796 289.45C188.645 290.812 188.902 292.189 189.533 293.405C190.165 294.621 191.143 295.623 192.344 296.283C193.545 296.943 194.914 297.232 196.28 297.114C197.645 296.995 198.944 296.474 200.013 295.617C201.083 294.76 201.874 293.605 202.286 292.298C202.699 290.991 202.714 289.591 202.331 288.276C201.948 286.96 201.183 285.788 200.133 284.907C199.438 284.321 198.633 283.878 197.767 283.604C196.9 283.329 195.987 283.228 195.081 283.307C194.176 283.386 193.294 283.642 192.487 284.062C191.681 284.482 190.965 285.056 190.381 285.753Z" fill="white"/>
<path d="M195.68 113.823C192.526 113.82 189.466 114.893 187.005 116.865C184.543 118.837 182.829 121.59 182.144 124.668C181.459 127.747 181.845 130.967 183.239 133.796C184.632 136.626 186.949 138.895 189.807 140.229C192.665 141.563 195.892 141.882 198.956 141.133C202.019 140.385 204.736 138.613 206.656 136.111C208.576 133.609 209.586 130.527 209.517 127.374C209.448 124.221 208.306 121.186 206.278 118.77C204.981 117.22 203.36 115.974 201.529 115.119C199.697 114.264 197.701 113.822 195.68 113.823ZM201.344 134.446C200.004 135.575 198.359 136.281 196.618 136.474C194.877 136.668 193.117 136.34 191.562 135.533C190.007 134.726 188.726 133.476 187.882 131.941C187.038 130.406 186.668 128.655 186.82 126.91C186.971 125.164 187.637 123.503 188.733 122.136C189.829 120.769 191.305 119.758 192.976 119.231C194.647 118.704 196.436 118.685 198.118 119.175C199.8 119.665 201.299 120.644 202.424 121.986C203.924 123.786 204.652 126.105 204.45 128.439C204.248 130.773 203.131 132.932 201.344 134.446Z" fill="white"/>
<path d="M200.133 107.104C201.183 106.224 201.948 105.051 202.331 103.735C202.714 102.42 202.699 101.02 202.286 99.713C201.874 98.4062 201.083 97.2511 200.013 96.3939C198.944 95.5367 197.645 95.0159 196.28 94.8974C194.914 94.7789 193.545 95.0681 192.344 95.7283C191.143 96.3885 190.165 97.3901 189.533 98.6063C188.902 99.8225 188.645 101.199 188.796 102.561C188.947 103.923 189.499 105.21 190.381 106.258C190.965 106.955 191.681 107.53 192.487 107.949C193.294 108.369 194.176 108.626 195.081 108.704C195.987 108.783 196.9 108.682 197.767 108.408C198.633 108.133 199.438 107.69 200.133 107.104Z" fill="white"/>
</g>
</svg>
